<?xml version="1.0" standalone="no"?>
<!DOCTYPE svg PUBLIC "-//W3C//DTD SVG 20010904//EN"
 "http://www.w3.org/TR/2001/REC-SVG-20010904/DTD/svg10.dtd">
<svg version="1.0" xmlns="http://www.w3.org/2000/svg"
 width="297.000000pt" height="297.000000pt" viewBox="0 0 297.000000 297.000000"
 preserveAspectRatio="xMidYMid meet">
<metadata>
Created by potrace 1.11, written by Peter Selinger 2001-2013
</metadata>
<g transform="translate(0.000000,297.000000) scale(0.100000,-0.100000)"
fill="#000000" stroke="none">
<path d="M0 1490 l0 -1350 1485 0 1485 0 0 1350 0 1350 -1485 0 -1485 0 0
-1350z m2870 0 l0 -1250 -1385 0 -1385 0 0 1250 0 1250 1385 0 1385 0 0 -1250z"/>
<path d="M970 2375 c0 -8 7 -15 15 -15 13 0 15 -20 15 -120 0 -113 1 -120 20
-120 11 0 20 5 20 12 0 9 3 9 12 0 19 -19 73 -14 93 8 27 30 30 99 5 139 -19
30 -25 33 -60 29 l-40 -4 0 43 0 43 -40 0 c-29 0 -40 -4 -40 -15z m141 -126
c6 -12 8 -36 4 -55 -5 -30 -10 -34 -35 -34 -29 0 -30 1 -30 48 0 27 3 52 7 55
13 14 43 6 54 -14z"/>
<path d="M450 2361 c0 -11 4 -21 9 -23 4 -1 20 -50 33 -108 23 -97 27 -105 50
-108 24 -3 27 2 42 65 22 88 31 104 40 66 28 -112 37 -133 61 -133 21 0 25 9
48 107 14 59 30 109 36 111 6 2 11 12 11 23 0 16 -7 19 -45 19 -38 0 -45 -3
-45 -19 0 -11 5 -21 10 -23 11 -3 -8 -118 -19 -118 -4 0 -15 31 -25 68 -10 38
-21 74 -26 82 -16 26 -37 1 -55 -67 -26 -99 -30 -103 -44 -33 -9 45 -9 66 -2
73 24 24 11 37 -34 37 -38 0 -45 -3 -45 -19z"/>
<path d="M1360 2250 l0 -90 635 0 635 0 0 90 0 90 -635 0 -635 0 0 -90z"/>
<path d="M822 2288 c-28 -31 -36 -70 -22 -113 14 -42 35 -55 87 -55 76 0 89
43 13 44 -34 1 -45 5 -48 19 -3 14 5 17 52 17 55 0 56 1 56 29 0 15 -9 40 -21
55 -27 35 -86 36 -117 4z m86 -40 c3 -14 -3 -18 -27 -18 -29 0 -41 17 -24 34
13 13 48 1 51 -16z"/>
<path d="M340 1760 l0 -90 1145 0 1145 0 0 90 0 90 -1145 0 -1145 0 0 -90z"/>
<path d="M340 1220 l0 -90 1145 0 1145 0 0 90 0 90 -1145 0 -1145 0 0 -90z"/>
<path d="M2130 845 c0 -8 7 -15 15 -15 10 0 15 -10 15 -29 0 -28 -1 -29 -38
-24 -34 4 -42 1 -60 -22 -33 -42 -27 -132 11 -156 5 -4 43 -7 83 -7 57 0 74 4
74 14 0 8 -4 14 -10 14 -6 0 -10 47 -10 120 l0 120 -40 0 c-29 0 -40 -4 -40
-15z m25 -160 c0 -45 -2 -50 -24 -53 -28 -4 -41 12 -41 54 0 36 17 56 45 52
17 -3 20 -11 20 -53z"/>
<path d="M1400 831 c0 -12 6 -21 15 -21 22 0 22 -178 0 -186 -8 -4 -15 -12
-15 -20 0 -10 15 -14 55 -14 42 0 55 3 55 15 0 8 -7 15 -15 15 -10 0 -15 11
-15 35 0 32 3 35 28 35 35 0 52 -16 52 -50 0 -14 5 -31 12 -38 17 -17 58 -15
58 3 0 8 -4 15 -10 15 -5 0 -10 14 -10 30 0 17 -8 38 -17 48 -17 16 -17 18 0
35 23 23 21 51 -6 83 -21 24 -32 28 -105 32 -78 4 -82 4 -82 -17z m144 -37 c9
-8 16 -19 16 -24 0 -17 -32 -40 -56 -40 -21 0 -24 4 -24 40 0 36 3 40 24 40
14 0 32 -7 40 -16z"/>
<path d="M1679 761 c-20 -16 -24 -28 -24 -76 0 -70 24 -95 89 -95 48 0 69 11
61 31 -4 10 -16 14 -40 11 -34 -4 -65 10 -65 29 0 5 28 9 61 9 l62 0 -7 32
c-11 56 -32 78 -75 78 -23 0 -48 -8 -62 -19z m84 -35 c7 -18 -1 -26 -28 -26
-29 0 -37 10 -24 27 15 17 45 17 52 -1z"/>
<path d="M1868 769 c-25 -14 -23 -49 2 -49 11 0 20 4 20 9 0 13 27 21 45 15
26 -10 18 -44 -10 -44 -35 0 -74 -20 -81 -42 -10 -32 22 -68 59 -68 18 0 38 5
45 12 9 9 12 9 12 0 0 -7 13 -12 30 -12 30 0 42 21 20 35 -5 3 -10 32 -10 64
0 43 -5 62 -18 74 -21 19 -87 22 -114 6z m82 -118 c0 -23 -28 -35 -46 -20 -11
9 -11 15 -3 25 17 21 49 17 49 -5z"/>
<path d="M2281 758 c-41 -43 -35 -134 10 -158 22 -12 89 -13 108 -1 26 16 6
34 -39 35 -34 1 -45 5 -48 19 -3 14 5 17 52 17 55 0 56 1 56 29 0 15 -9 40
-21 55 -27 34 -88 37 -118 4z m87 -40 c3 -14 -3 -18 -27 -18 -29 0 -41 17 -24
34 13 13 48 1 51 -16z"/>
<path d="M2450 765 c0 -8 5 -15 10 -15 6 0 10 -28 10 -65 0 -37 -4 -65 -10
-65 -5 0 -10 -7 -10 -15 0 -11 12 -15 50 -15 36 0 50 4 50 14 0 8 -7 16 -15
20 -10 4 -15 20 -15 52 0 42 3 47 30 57 18 7 30 19 30 29 0 21 -30 24 -48 6
-9 -9 -12 -9 -12 0 0 7 -14 12 -35 12 -24 0 -35 -5 -35 -15z"/>
<path d="M340 680 l0 -90 425 0 425 0 0 90 0 90 -425 0 -425 0 0 -90z"/>
</g>
</svg>
